{"title":"Inside Men S01","uid":9890574,"size":1699201415,"categoryP":"video","categoryS":"tv_shows","magnet":"?xt=urn:btih:524a5f4bdf655ed0ce88094c18c1e103d21cb7e0&amp;dn=Inside+Men+S01&amp;tr=udp%3A%2F%2Ftracker.openbittorrent.com%3A80&amp;tr=udp%3A%2F%2Fopen.demonii.com%3A1337&amp;tr=udp%3A%2F%2Ftracker.coppersurfer.tk%3A6969&amp;tr=udp%3A%2F%2Fexodus.desync.com%3A6969","seeders":2,"leechers":0,"uploader":"RedBaron58","files":4,"time":1396639941,"description":"Inside Men (2012) DVDRip BBC Crime Drama  4 part 1 hour episodes x264 mp4\n  &lt;a href=&quot;\nhttp://www.imdb.com/title/tt1989062/&quot; rel=&quot;nofollow&quot; target=&quot;_NEW&quot;&gt;\nhttp://www.imdb.com/title/tt1989062/&lt;/a&gt;\n\n\nPlease be patient My upload speed is limited, but I am online most the time and during the night.\nThank you for your kind comments and thumbs ups on my other torrents, your feedback is welcome.\n\n\nAbout the Series:\nDrama series told entirely from the perspective of three security depot employees who plan and \nexecute a multi-million pound cash heist. \nThe three main characters are John Coniston (Steven Mackintosh) who is the seemingly straightlaced manager \nof the secure depot, Marcus (Warren Brown) who moves trolleys of cash and security guard Chris (Ashley Walters).\n\n\nI hope you enjoy.\n\n\nTechnical: (All episodes encoded to the same settings)\n\nGeneral\nComplete name                            : G:Inside Men S01Inside Men S01E01 x264 RB58.mp4\nFormat                                   : MPEG-4\nFormat profile                           : Base Media / Version 2\nCodec ID                                 : mp42\nFile size                                : 404 MiB\nDuration                                 : 58mn 37s\nOverall bit rate mode                    : Variable\nOverall bit rate                         : 964 Kbps\nEncoded date                             : UTC 2014-04-04 09:21:49\nTagged date                              : UTC 2014-04-04 09:36:03\nWriting application                      : HandBrake 0.9.8 2012071700\n\nVideo\nID                                       : 1\nFormat                                   : AVC\nFormat/Info                              : Advanced Video Codec\nFormat profile                           : &lt;a class=&quot;__cf_email__&quot; href=&quot;/cdn-cgi/l/email-protection&quot; data-cfemail=&quot;d79ab6beb9979be4f9e7&quot;&gt;[email&amp;#160;protected]&lt;/a&gt;&lt;script cf-hash='f9e31' type=&quot;text/javascript&quot;&gt;\n/* &lt;![CDATA[ */!function(){try{var t=&quot;currentScript&quot;in document?document.currentScript:function(){for(var t=document.getElementsByTagName(&quot;script&quot;),e=t.length;e--;)if(t[e].getAttribute(&quot;cf-hash&quot;))return t[e]}();if(t&amp;&amp;t.previousSibling){var e,r,n,i,c=t.previousSibling,a=c.getAttribute(&quot;data-cfemail&quot;);if(a){for(e=&quot;&quot;,r=parseInt(a.substr(0,2),16),n=2;a.length-n;n+=2)i=parseInt(a.substr(n,2),16)^r,e+=String.fromCharCode(i);e=document.createTextNode(e),c.parentNode.replaceChild(e,c)}}}catch(u){}}();/* ]]&gt; */&lt;/script&gt;\nFormat settings, CABAC                   : Yes\nFormat settings, ReFrames                : 4 frames\nCodec ID                                 : avc1\nCodec ID/Info                            : Advanced Video Coding\nDuration                                 : 58mn 37s\nBit rate mode                            : Variable\nBit rate                                 : 800 Kbps\nWidth                                    : 716 pixels\nHeight                                   : 576 pixels\nDisplay aspect ratio                     : 16:9\nFrame rate mode                          : Constant\nFrame rate                               : 25.000 fps\nColor space                              : YUV\nChroma subsampling                       : 4:2:0\nBit depth                                : 8 bits\nScan type                                : Progressive\nBits/(Pixel*Frame)                       : 0.078\nStream size                              : 335 MiB (83%)\nWriting library                          : x264 core 120\nEncoding settings                        : cabac=1 / ref=1 / deblock=1:0:0\nEncoded date                             : UTC 2014-04-04 09:21:49\nTagged date                              : UTC 2014-04-04 09:36:03\nColor primaries                          : BT.601 NTSC\nTransfer characteristics                 : BT.709\nMatrix coefficients                      : BT.601\n\nAudio\nID                                       : 2\nFormat                                   : AAC\nFormat/Info                              : Advanced Audio Codec\nFormat profile                           : LC\nCodec ID                                 : 40\nDuration                                 : 58mn 37s\nBit rate mode                            : Variable\nBit rate                                 : 160 Kbps\nMaximum bit rate                         : 202 Kbps\nChannel(s)                               : 2 channels\nChannel positions                        : Front: L R\nSampling rate                            : 48.0 KHz\nCompression mode                         : Lossy\nDelay relative to video                  : 80ms\nStream size                              : 67.1 MiB (17%)\nLanguage                                 : English\nEncoded date                             : UTC 2014-04-04 09:21:49\nTagged date                              : UTC 2014-04-04 09:36:02","torrent":{"xt":"urn:btih:524a5f4bdf655ed0ce88094c18c1e103d21cb7e0","amp;dn":"Inside+Men+S01","amp;tr":["udp%3A%2F%2Ftracker.openbittorrent.com%3A80","udp%3A%2F%2Fopen.demonii.com%3A1337","udp%3A%2F%2Ftracker.coppersurfer.tk%3A6969","udp%3A%2F%2Fexodus.desync.com%3A6969"],"infoHash":"524a5f4bdf655ed0ce88094c18c1e103d21cb7e0","infoHashBuffer":{"type":"Buffer","data":[82,74,95,75,223,101,94,208,206,136,9,76,24,193,225,3,210,28,183,224]},"announce":[],"urlList":[]}}